<svg viewBox="0 0 32 32" xmlns="http://www.w3.org/2000/svg" xmlns:svg="http://www.w3.org/2000/svg" version="1.1"> <defs id="defs1"> <linearGradient id="dark-gradient" spreadMethod="pad" x1="1" x2="0" y1="0" y2="1"> <stop id="dark-gradient-0" offset="0%" stop-color="#191919" /> <stop id="dark-gradient-1" offset="100%" stop-color="#000" /> </linearGradient> <linearGradient id="name-gradient" spreadMethod="pad" x1="0.13" x2="0.8" y1="0.45" y2="0.45"> <stop id="name-gradient-0" offset="0%" stop-color="#3048c1" /> <stop id="name-gradient-1" offset="100%" stop-color="#ff4057" /> </linearGradient> </defs> <g class="layer"> <rect fill="url(#dark-gradient)" height="32" id="rect1" rx="2" ry="2" width="32" x="0" y="0" /> <path d="m14.93,13.97l-3.54,0c-0.18,-1.31 -1.24,-1.77 -2.55,-1.77c-2.23,0 -3.31,1.57 -3.31,3.73c0,2.1 0.89,3.87 3.22,3.87c1.3,0 2.5,-0.46 2.61,-1.9l3.63,0c-0.15,3.49 -3.02,4.33 -6.59,4.33c-3.53,0 -6.4,-1.81 -6.4,-6.21c0,-4.44 2.74,-6.25 6.95,-6.25c3.02,0 5.92,1.07 5.98,4.2zm2.36,7.94l0,-11.82l3.43,0l0,5.22l4.77,-5.22l4.14,0l-5.16,5.3l5.53,6.52l-4.44,0l-4.81,-6.09l-0.03,0l0,6.09l-3.43,0z" fill="url(#name-gradient)" id="path1" /> </g> </svg>