<svg viewBox="0 0 32 32" xmlns="http://www.w3.org/2000/svg" xmlns:svg="http://www.w3.org/2000/svg" version="1.1"> <defs id="defs1"> <linearGradient id="dark-gradient" spreadMethod="pad" x1="1" x2="0" y1="0" y2="1"> <stop id="dark-gradient-0" offset="0%" stop-color="#191919" /> <stop id="dark-gradient-1" offset="100%" stop-color="#000" /> </linearGradient> <linearGradient id="name-gradient" spreadMethod="pad" x1="0.13" x2="0.8" y1="0.45" y2="0.45"> <stop id="name-gradient-0" offset="0%" stop-color="#3048c1" /> <stop id="name-gradient-1" offset="100%" stop-color="#ff4057" /> </linearGradient> </defs> <g class="layer"> <rect fill="url(#dark-gradient)" height="32" id="rect1" rx="2" ry="2" width="32" x="0" y="0" /> <path d="m14.85,13.82l-3.79,0c-0.19,-1.4 -1.33,-1.89 -2.73,-1.89c-2.39,0 -3.55,1.68 -3.55,4c0,2.25 0.96,4.14 3.45,4.14c1.4,0 2.68,-0.49 2.8,-2.03l3.89,0c-0.16,3.73 -3.24,4.63 -7.06,4.63c-3.78,0 -6.86,-1.93 -6.86,-6.65c0,-4.76 2.94,-6.69 7.45,-6.69c3.23,0 6.34,1.14 6.4,4.49zm2.53,8.51l0,-12.66l3.68,0l0,5.59l5.11,-5.59l4.43,0l-5.53,5.68l5.93,6.98l-4.76,0l-5.15,-6.52l-0.03,0l0,6.52l-3.68,0z" fill="url(#name-gradient)" id="path1" stroke-width="0.35" /> </g> </svg>