<svg viewBox="0 0 96 96" xmlns="http://www.w3.org/2000/svg" xmlns:svg="http://www.w3.org/2000/svg"> <defs id="defs1"> <linearGradient id="dark-gradient" spreadMethod="pad" x1="1" x2="0" y1="0" y2="1"> <stop id="dark-gradient-0" offset="0%" stop-color="#191919" /> <stop id="dark-gradient-1" offset="100%" stop-color="#000" /> </linearGradient> <linearGradient id="name-gradient" spreadMethod="pad" x1="0" x2="1" y1="0" y2="0"> <stop id="name-gradient-0" offset="0%" stop-color="#3048c1" /> <stop id="name-gradient-1" offset="100%" stop-color="#ff4057" /> </linearGradient> </defs> <g class="layer"> <title>Layer 1</title> <rect fill="url(#dark-gradient)" height="96" id="rect1" rx="6" ry="6" width="96" /> <path d="m44.69,41.8l-10.84,0c-0.55,-4 -3.81,-5.4 -7.83,-5.4c-6.87,0 -10.18,4.8 -10.18,11.4c0,6.4 2.76,11.8 9.88,11.8c4.02,0 7.68,-1.4 8.03,-5.8l11.14,0c-0.45,10.65 -9.28,13.2 -20.22,13.2c-10.84,0 -19.67,-5.5 -19.67,-18.95c0,-13.55 8.43,-19.05 21.37,-19.05c9.24,0 18.17,3.25 18.32,12.8zm7.27,24.25l0,-36.1l10.54,0l0,15.95l14.65,-15.95l12.7,0l-15.86,16.2l17.01,19.9l-13.65,0l-14.75,-18.6l-0.1,0l0,18.6l-10.54,0z" fill="url(#name-gradient)" id="path1" /> </g> </svg>