<svg width="48" height="48" viewBox="0 0 48 48" fill="none" xmlns="http://www.w3.org/2000/svg">
<rect width="48" height="48" rx="3" fill="#0C0C0C"/>
<path d="M22.4714 20.4205H17.4143C17.1571 18.4179 15.6429 17.7147 13.7714 17.7147C10.5857 17.7147 9.04286 20.1148 9.04286 23.4168C9.04286 26.6271 10.3143 29.3329 13.6429 29.3329C15.5 29.3329 17.2143 28.6297 17.3714 26.4283H22.5571C22.3429 31.7635 18.2429 33.0476 13.1429 33.0476C8.1 33.0476 4 30.2807 4 23.5544C4 16.7669 7.91429 14 13.9286 14C18.2429 14 22.3857 15.6357 22.4714 20.4205ZM25.8429 32.5584V14.4892H30.7429V22.469L37.5571 14.4892H43.4714L36.1 22.5913L44 32.5584H37.6571L30.7857 23.2486H30.7429V32.5584H25.8429Z" fill="url(#paint0_linear_48_2)"/>
<defs>
<linearGradient id="paint0_linear_48_2" x1="9.2381" y1="23.1722" x2="35.9047" y2="23.1722" gradientUnits="userSpaceOnUse">
<stop stop-color="#3048C1"/>
<stop offset="1" stop-color="#FF4057"/>
</linearGradient>
</defs>
</svg>
