<svg width="48" height="48" viewBox="0 0 48 48" fill="none" xmlns="http://www.w3.org/2000/svg">
<rect width="48" height="48" rx="3" fill="#0C0C0C"/>
<path d="M4 24.024C4 22.0827 4.42 20.356 5.26 18.844C6.1 17.3133 7.26667 16.128 8.76 15.288C10.272 14.4293 11.98 14 13.884 14C16.2174 14 18.2147 14.616 19.876 15.848C21.5374 17.08 22.648 18.76 23.208 20.888H17.944C17.552 20.0667 16.992 19.4413 16.264 19.012C15.5547 18.5827 14.7427 18.368 13.828 18.368C12.3533 18.368 11.1587 18.8813 10.244 19.908C9.32933 20.9347 8.872 22.3067 8.872 24.024C8.872 25.7413 9.32933 27.1133 10.244 28.14C11.1587 29.1667 12.3533 29.68 13.828 29.68C14.7427 29.68 15.5547 29.4653 16.264 29.036C16.992 28.6067 17.552 27.9813 17.944 27.16H23.208C22.648 29.288 21.5374 30.968 19.876 32.2C18.2147 33.4133 16.2174 34.02 13.884 34.02C11.98 34.02 10.272 33.6 8.76 32.76C7.26667 31.9013 6.1 30.716 5.26 29.204C4.42 27.692 4 25.9653 4 24.024ZM37.5362 33.88L30.9282 25.2V33.88H26.1402V14.224H30.9282V22.848L37.4802 14.224H43.1082L35.4922 23.856L43.3882 33.88H37.5362Z" fill="url(#paint0_linear_57_18)"/>
<defs>
<linearGradient id="paint0_linear_57_18" x1="9.00177" y1="23.88" x2="35.5018" y2="23.88" gradientUnits="userSpaceOnUse">
<stop stop-color="#3048C6"/>
<stop offset="1" stop-color="#30C68A"/>
</linearGradient>
</defs>
</svg>
