<svg viewBox="0 0 32 32" fill="none" xmlns="http://www.w3.org/2000/svg"> <rect width="32" height="32" rx="2" fill="url(#paint0_linear_1_4)"/> <path d="M2.07016 15.96C2.07016 14.5733 2.37016 13.34 2.97016 12.26C3.57016 11.1667 4.40349 10.32 5.47016 9.72C6.55016 9.10667 7.77016 8.8 9.13016 8.8C10.7968 8.8 12.2235 9.24 13.4102 10.12C14.5968 11 15.3902 12.2 15.7902 13.72H12.0302C11.7502 13.1333 11.3502 12.6867 10.8302 12.38C10.3235 12.0733 9.74349 11.92 9.09016 11.92C8.03682 11.92 7.18349 12.2867 6.53016 13.02C5.87682 13.7533 5.55016 14.7333 5.55016 15.96C5.55016 17.1867 5.87682 18.1667 6.53016 18.9C7.18349 19.6333 8.03682 20 9.09016 20C9.74349 20 10.3235 19.8467 10.8302 19.54C11.3502 19.2333 11.7502 18.7867 12.0302 18.2H15.7902C15.3902 19.72 14.5968 20.92 13.4102 21.8C12.2235 22.6667 10.7968 23.1 9.13016 23.1C7.77016 23.1 6.55016 22.8 5.47016 22.2C4.40349 21.5867 3.57016 20.74 2.97016 19.66C2.37016 18.58 2.07016 17.3467 2.07016 15.96ZM26.0245 23L21.3045 16.8V23H17.8845V8.96H21.3045V15.12L25.9845 8.96H30.0045L24.5645 15.84L30.2045 23H26.0245Z" fill="url(#paint1_linear_1_4)"/> <defs> <linearGradient id="paint0_linear_1_4" x1="0" y1="32" x2="32" y2="0" gradientUnits="userSpaceOnUse"> <stop/> <stop offset="1" stop-color="#191919"/> </linearGradient> <linearGradient id="paint1_linear_1_4" x1="5.5" y1="16" x2="24" y2="16" gradientUnits="userSpaceOnUse"> <stop stop-color="#3048C1"/> <stop offset="1" stop-color="#FF4057"/> </linearGradient> </defs> </svg>