<svg viewBox="0 0 239 19" fill="none" xmlns="http://www.w3.org/2000/svg">
<path d="M0.792 9.552C0.792 7.888 1.152 6.408 1.872 5.112C2.592 3.8 3.592 2.784 4.872 2.064C6.168 1.328 7.632 0.959999 9.264 0.959999C11.264 0.959999 12.976 1.488 14.4 2.544C15.824 3.6 16.776 5.04 17.256 6.864H12.744C12.408 6.16 11.928 5.624 11.304 5.256C10.696 4.888 10 4.704 9.216 4.704C7.952 4.704 6.928 5.144 6.144 6.024C5.36 6.904 4.968 8.08 4.968 9.552C4.968 11.024 5.36 12.2 6.144 13.08C6.928 13.96 7.952 14.4 9.216 14.4C10 14.4 10.696 14.216 11.304 13.848C11.928 13.48 12.408 12.944 12.744 12.24H17.256C16.776 14.064 15.824 15.504 14.4 16.56C12.976 17.6 11.264 18.12 9.264 18.12C7.632 18.12 6.168 17.76 4.872 17.04C3.592 16.304 2.592 15.288 1.872 13.992C1.152 12.696 0.792 11.216 0.792 9.552ZM34.3613 1.152V18H30.2573V11.064H23.8733V18H19.7693V1.152H23.8733V7.752H30.2573V1.152H34.3613ZM51.9159 1.152V18H47.8119V11.064H41.4279V18H37.3239V1.152H41.4279V7.752H47.8119V1.152H51.9159ZM65.3666 15.024H59.0786L58.0706 18H53.7746L59.8706 1.152H64.6226L70.7186 18H66.3746L65.3666 15.024ZM64.3106 11.856L62.2226 5.688L60.1586 11.856H64.3106ZM84.6939 1.152V4.44H80.2299V18H76.1259V4.44H71.6619V1.152H84.6939ZM95.3456 18L91.8416 11.64H90.8576V18H86.7536V1.152H93.6416C94.9696 1.152 96.0976 1.384 97.0256 1.848C97.9696 2.312 98.6736 2.952 99.1376 3.768C99.6016 4.568 99.8336 5.464 99.8336 6.456C99.8336 7.576 99.5136 8.576 98.8736 9.456C98.2496 10.336 97.3216 10.96 96.0896 11.328L99.9776 18H95.3456ZM90.8576 8.736H93.4016C94.1536 8.736 94.7136 8.552 95.0816 8.184C95.4656 7.816 95.6576 7.296 95.6576 6.624C95.6576 5.984 95.4656 5.48 95.0816 5.112C94.7136 4.744 94.1536 4.56 93.4016 4.56H90.8576V8.736ZM106.514 4.44V7.848H112.01V11.016H106.514V14.712H112.73V18H102.41V1.152H112.73V4.44H106.514ZM121.49 18.168C120.258 18.168 119.154 17.968 118.178 17.568C117.202 17.168 116.418 16.576 115.826 15.792C115.25 15.008 114.946 14.064 114.914 12.96H119.282C119.346 13.584 119.562 14.064 119.93 14.4C120.298 14.72 120.778 14.88 121.37 14.88C121.978 14.88 122.458 14.744 122.81 14.472C123.162 14.184 123.338 13.792 123.338 13.296C123.338 12.88 123.194 12.536 122.906 12.264C122.634 11.992 122.29 11.768 121.874 11.592C121.474 11.416 120.898 11.216 120.146 10.992C119.058 10.656 118.17 10.32 117.482 9.984C116.794 9.648 116.202 9.152 115.706 8.496C115.21 7.84 114.962 6.984 114.962 5.928C114.962 4.36 115.53 3.136 116.666 2.256C117.802 1.36 119.282 0.912 121.106 0.912C122.962 0.912 124.458 1.36 125.594 2.256C126.73 3.136 127.338 4.368 127.418 5.952H122.978C122.946 5.408 122.746 4.984 122.378 4.68C122.01 4.36 121.538 4.2 120.962 4.2C120.466 4.2 120.066 4.336 119.762 4.608C119.458 4.864 119.306 5.24 119.306 5.736C119.306 6.28 119.562 6.704 120.074 7.008C120.586 7.312 121.386 7.64 122.474 7.992C123.562 8.36 124.442 8.712 125.114 9.048C125.802 9.384 126.394 9.872 126.89 10.512C127.386 11.152 127.634 11.976 127.634 12.984C127.634 13.944 127.386 14.816 126.89 15.6C126.41 16.384 125.706 17.008 124.778 17.472C123.85 17.936 122.754 18.168 121.49 18.168ZM144.752 1.152V18H140.648V11.064H134.264V18H130.16V1.152H134.264V7.752H140.648V1.152H144.752ZM162.569 18L156.905 10.56V18H152.801V1.152H156.905V8.544L162.521 1.152H167.345L160.817 9.408L167.585 18H162.569ZM184.127 1.152V18H180.023V11.064H173.639V18H169.535V1.152H173.639V7.752H180.023V1.152H184.127ZM197.578 15.024H191.29L190.282 18H185.986L192.082 1.152H196.834L202.93 18H198.586L197.578 15.024ZM196.522 11.856L194.434 5.688L192.37 11.856H196.522ZM216.905 1.152V4.44H212.441V18H208.337V4.44H203.873V1.152H216.905ZM227.557 18L224.053 11.64H223.069V18H218.965V1.152H225.853C227.181 1.152 228.309 1.384 229.237 1.848C230.181 2.312 230.885 2.952 231.349 3.768C231.813 4.568 232.045 5.464 232.045 6.456C232.045 7.576 231.725 8.576 231.085 9.456C230.461 10.336 229.533 10.96 228.301 11.328L232.189 18H227.557ZM223.069 8.736H225.613C226.365 8.736 226.925 8.552 227.293 8.184C227.677 7.816 227.869 7.296 227.869 6.624C227.869 5.984 227.677 5.48 227.293 5.112C226.925 4.744 226.365 4.56 225.613 4.56H223.069V8.736ZM238.725 1.152V18H234.621V1.152H238.725Z" fill="url(#paint0_linear_2_2)"/>
<defs>
<linearGradient id="paint0_linear_2_2" x1="0" y1="8.80005" x2="241" y2="8.80003" gradientUnits="userSpaceOnUse">
<stop stop-color="#5740FF"/>
<stop offset="1" stop-color="#FF4057"/>
</linearGradient>
</defs>
</svg>
